{"title":"The Karate Kid 2010 CAM.SUBBED XViD-UKB","uid":5653717,"size":1403134163,"categoryP":"video","categoryS":"movies","magnet":"?xt=urn:btih:f88c4809f13ec7bce09f1020a2d442fbdeb67c51&amp;dn=The+Karate+Kid+2010+CAM.SUBBED+XViD-UKB&amp;tr=udp%3A%2F%2Ftracker.openbittorrent.com%3A80&amp;tr=udp%3A%2F%2Fopen.demonii.com%3A1337&amp;tr=udp%3A%2F%2Ftracker.coppersurfer.tk%3A6969&amp;tr=udp%3A%2F%2Fexodus.desync.com%3A6969","seeders":0,"leechers":0,"uploader":"sceneline","files":4,"time":1277719768,"description":"\n\nThe Karate Kid CAM SUBBED XViD-UKB\n\n\nFormat: AVI\nFormat/Info: Audio Video Interleave\nFile size: 1.30 GiB\nDuration: 2h 12mn\nOverall bit rate: 1 410 Kbps\nSource: The Karate Kid, 2010[ DVD CUSTOM][NTSC][Antonn + SNDX][DUAL-Latino]\n\n[color=red]*** SAMPLE INCLUDED ***[/color]\n\nIMDB: [url]http://www.imdb.com/title/tt1155076/[/url]\n\n[color=blue]*** Video ***[/color]\nID: 0\nFormat: MPEG-4 Visual\nFormat profile: Advanced Simple@L5\nFormat settings, BVOP: Yes\nFormat settings, QPel: No\nFormat settings, GMC: No warppoints\nFormat settings, Matrix: Default (H.263)\nMuxing mode: Packed bitstream\nCodec ID: XVID\nCodec ID/Hint: XviD\nDuration: 2h 12mn\nBit rate: 1 266 Kbps\nWidth: 720 pixels\nHeight: 304 pixels\nDisplay aspect ratio: 2.35:1\nFrame rate: 29.970 fps\nColor space: YUV\nChroma subsampling: 4:2:0\nBit depth: 8 bits\nScan type: Progressive\nBits/(Pixel*Frame): 0.193\nStream size: 1.17 GiB (90%)\nWriting library: XviD 1.2.1 (UTC 2008-12-04)\n\n[color=blue]*** Audio ***[/color]\nID: 1\nFormat: MPEG Audio\nFormat version: Version 1\nFormat profile: Layer 3\nMode: Joint stereo\nMode extension: MS Stereo\nCodec ID: 55\nCodec ID/Hint: MP3\nDuration: 2h 12mn\nBit rate mode: Constant\nBit rate: 128 Kbps\nChannel(s): 2 channels\nSampling rate: 48.0 KHz\nStream size: 121 MiB (9%)\nAlignment: Aligned on interleaves\nInterleave, duration: 33 ms (1.00 video frame)\nInterleave, preload duration: 408 ms\n\n[note]\nThis is a rip from Anntons DVD. It had alot of glare, but I toned it down a bit. \nIt is missing some footage around 30 secs.(In my opinion, not important really.) \nIt does have spanish subs hardcoded through out and English subs for non english parts. \nTake it or leave it.\n\n[screens]\n","torrent":{"xt":"urn:btih:f88c4809f13ec7bce09f1020a2d442fbdeb67c51","amp;dn":"The+Karate+Kid+2010+CAM.SUBBED+XViD-UKB","amp;tr":["udp%3A%2F%2Ftracker.openbittorrent.com%3A80","udp%3A%2F%2Fopen.demonii.com%3A1337","udp%3A%2F%2Ftracker.coppersurfer.tk%3A6969","udp%3A%2F%2Fexodus.desync.com%3A6969"],"infoHash":"f88c4809f13ec7bce09f1020a2d442fbdeb67c51","infoHashBuffer":{"type":"Buffer","data":[248,140,72,9,241,62,199,188,224,159,16,32,162,212,66,251,222,182,124,81]},"announce":[],"urlList":[]}}